<svg xmlns="http://www.w3.org/2000/svg" viewBox="0 0 1200 400">
  <defs>
    <linearGradient id="donGrad" x1="0%" y1="0%" x2="100%" y2="100%">
      <stop offset="0%" style="stop-color:hsla(270, 71%, 52%, 1);stop-opacity:1" />
      <stop offset="100%" style="stop-color:hsla(270, 71%, 42%, 1);stop-opacity:1" />
    </linearGradient>
  </defs>
  <rect width="1200" height="400" fill="url(#donGrad)"/>
  <!-- Heart icons -->
  <g opacity="0.2">
    <path d="M150,150 C150,140 155,130 165,130 C175,130 180,140 180,150 C180,160 170,180 165,190 C160,180 150,160 150,150 Z" fill="white"/>
    <path d="M200,150 C200,140 205,130 215,130 C225,130 230,140 230,150 C230,160 220,180 215,190 C210,180 200,160 200,150 Z" fill="white"/>
  </g>
  <!-- Hands/Giving icons -->
  <g opacity="0.15">
    <path d="M500,200 Q480,180 500,160 Q520,180 500,200 Z" fill="white"/>
    <path d="M600,200 Q620,180 600,160 Q580,180 600,200 Z" fill="white"/>
    <ellipse cx="550" cy="250" rx="30" ry="40" fill="white"/>
  </g>
</svg>
